<svg viewBox="0 0 24 24" xmlns="http://www.w3.org/2000/svg"><path d="m2 2h20v20h-20z" fill="none"/><g fill-rule="evenodd"><path d="m17.85 14.2-10.18 5.88-.98-1.68 10.19-5.89z" fill="#aecbfa"/><path d="m7.63 18.16v-11.76h1.87v10.35z" fill="#aecbfa"/><path d="m9.56 9.69-.26-2.36 10.19 5.87-.97 1.68z" fill="#aecbfa"/><path d="m14.39 10.26-5.09-2.93.26 2.36 1.51.86a4 4 0 0 0 3.32-.29z" fill="#4285f4"/><path d="m8.13 8.29a3.78 3.78 0 1 1 3.27 1.89 3.8 3.8 0 0 1 -3.27-1.89zm4.87-2.8a1.84 1.84 0 0 0 -1.59-.92 1.83 1.83 0 0 0 -1.84 1.83 1.84 1.84 0 1 0 3.67 0 1.8 1.8 0 0 0 -.24-.91z" fill="#aecbfa"/><path d="m7.63 12.94v5.22l1.87-1.41v-1.63a3.29 3.29 0 0 0 -1.87-2.18z" fill="#4285f4"/><path d="m13.33 16.81 4.52-2.61-2.21-1-1.25.8a4.23 4.23 0 0 0 -1.06 2.86z" fill="#4285f4"/><path d="m2.51 18.7a3.77 3.77 0 0 1 1.38-5.16 3.72 3.72 0 0 1 2.86-.38 3.78 3.78 0 1 1 -4.24 5.54zm4.85-2.81a1.79 1.79 0 0 0 -1.11-.89 1.83 1.83 0 0 0 -2.06 2.69 1.83 1.83 0 1 0 3.17-1.84z" fill="#aecbfa"/><path d="m14.33 18.36a3.79 3.79 0 0 1 0-3.77 3.79 3.79 0 0 1 5.16-1.39 3.78 3.78 0 0 1 1.38 5.16 3.78 3.78 0 0 1 -6.54 0zm4.86-2.81a2 2 0 0 0 -.67-.67 1.85 1.85 0 0 0 -2.51.68 1.86 1.86 0 0 0 0 1.83 1.83 1.83 0 0 0 2.07.85 1.82 1.82 0 0 0 1.11-.85 1.88 1.88 0 0 0 0-1.84z" fill="#aecbfa"/><path d="m9.49 16.15s-2.34 2-2.8 2.25l2.86-1.65a4.07 4.07 0 0 0 -.06-.6z" fill="#669df6"/><path d="m10.15 10s-.59-3.28-.59-3.6v3.29a3.47 3.47 0 0 0 .59.27z" fill="#669df6"/><path d="m15.3 13.47s2.76 1.15 3.22 1.41l-2.86-1.64a1.69 1.69 0 0 0 -.36.23z" fill="#669df6"/></g></svg>